<svg xmlns="http://www.w3.org/2000/svg" width="42" height="42" viewBox="0 0 42 42">
  <g id="Icons_brain" data-name="Icons/ brain" transform="translate(1.5 1.5)">
    <g id="Icons_brain-2" data-name="Icons/ brain">
      <path id="Path" d="M19.5,14.25A8.323,8.323,0,0,0,11.25,6H10.5V5.25A5.315,5.315,0,0,0,5.25,0,5.315,5.315,0,0,0,0,5.25v28.5A5.315,5.315,0,0,0,5.25,39a5.324,5.324,0,0,0,5.25-4.5A8.2,8.2,0,0,0,18,26.25a8.493,8.493,0,0,0-1.95-5.4A7.9,7.9,0,0,0,19.5,14.25Z" transform="translate(19.5)" fill="none" stroke="#205072" stroke-linecap="round" stroke-linejoin="round" stroke-miterlimit="10" stroke-width="3"/>
      <path id="Path-2" data-name="Path" d="M0,14.25A8.323,8.323,0,0,1,8.25,6H9V5.25a5.25,5.25,0,0,1,10.5,0v28.5A5.279,5.279,0,0,1,9,34.5a8.2,8.2,0,0,1-7.5-8.25,8.493,8.493,0,0,1,1.95-5.4A7.9,7.9,0,0,1,0,14.25Z" fill="none" stroke="#205072" stroke-linecap="round" stroke-linejoin="round" stroke-miterlimit="10" stroke-width="3"/>
      <path id="Path-3" data-name="Path" d="M0,0A7.427,7.427,0,0,1,7.5,7.5" transform="translate(30 19.5)" fill="none" stroke="#205072" stroke-linecap="round" stroke-linejoin="round" stroke-miterlimit="10" stroke-width="3"/>
      <path id="Path-4" data-name="Path" d="M8.25,8.25A8.323,8.323,0,0,1,0,0" transform="translate(0 14.25)" fill="none" stroke="#205072" stroke-linecap="round" stroke-linejoin="round" stroke-miterlimit="10" stroke-width="3"/>
      <path id="Path-5" data-name="Path" d="M1.8,4.05A5.665,5.665,0,0,1,0,0" transform="translate(9 5.25)" fill="none" stroke="#205072" stroke-linecap="round" stroke-linejoin="round" stroke-miterlimit="10" stroke-width="3"/>
    </g>
  </g>
</svg>
